{
	"asset":{
		"generator":"Khronos glTF Blender I/O v4.0.44",
		"version":"2.0"
	},
	"extensionsUsed":[
		"KHR_materials_specular",
		"KHR_materials_ior"
	],
	"scene":0,
	"scenes":[
		{
			"name":"Scene",
			"nodes":[
				0
			]
		}
	],
	"nodes":[
		{
			"mesh":0,
			"name":"StanfordDragon_remesh"
		}
	],
	"materials":[
		{
			"doubleSided":true,
			"extensions":{
				"KHR_materials_specular":{
					"specularFactor":0
				},
				"KHR_materials_ior":{
					"ior":1.4500000476837158
				}
			},
			"name":"/mat/None",
			"pbrMetallicRoughness":{
				"baseColorFactor":[
					0.800000011920929,
					0.800000011920929,
					0.800000011920929,
					1
				],
				"metallicFactor":0
			}
		}
	],
	"meshes":[
		{
			"name":"StanfordDragon_remesh",
			"primitives":[
				{
					"attributes":{
						"POSITION":0,
						"NORMAL":1
					},
					"indices":2,
					"material":0
				}
			]
		}
	],
	"accessors":[
		{
			"bufferView":0,
			"componentType":5126,
			"count":268305,
			"max":[
				0.22900797426700592,
				0.7222050428390503,
				0.5121420621871948
			],
			"min":[
				-0.22909066081047058,
				-0.00010940432548522949,
				-0.51221764087677
			],
			"type":"VEC3"
		},
		{
			"bufferView":1,
			"componentType":5126,
			"count":268305,
			"type":"VEC3"
		},
		{
			"bufferView":2,
			"componentType":5125,
			"count":831306,
			"type":"SCALAR"
		}
	],
	"bufferViews":[
		{
			"buffer":0,
			"byteLength":3219660,
			"byteOffset":0,
			"target":34962
		},
		{
			"buffer":0,
			"byteLength":3219660,
			"byteOffset":3219660,
			"target":34962
		},
		{
			"buffer":0,
			"byteLength":3325224,
			"byteOffset":6439320,
			"target":34963
		}
	],
	"buffers":[
		{
			"byteLength":9764544,
			"uri":"StanfordDragon.bin"
		}
	]
}
