{
	"asset":{
		"generator":"Khronos glTF Blender I/O v4.0.44",
		"version":"2.0"
	},
	"extensionsUsed":[
		"KHR_materials_clearcoat"
	],
	"scene":0,
	"scenes":[
		{
			"name":"Scene",
			"nodes":[
				0
			]
		}
	],
	"nodes":[
		{
			"mesh":0,
			"name":"1557-worker-and-kolkhoz-woman_(1)",
			"rotation":[
				0.7071068286895752,
				0,
				0,
				0.7071068286895752
			]
		}
	],
	"materials":[
		{
			"doubleSided":true,
			"extensions":{
				"KHR_materials_clearcoat":{
					"clearcoatFactor":0.30000001192092896,
					"clearcoatRoughnessFactor":0.75
				}
			},
			"name":"Material",
			"pbrMetallicRoughness":{
				"baseColorFactor":[
					0.08007434755563736,
					0.08007434755563736,
					0.08007434755563736,
					1
				],
				"metallicFactor":0.8999999761581421,
				"roughnessFactor":0.5
			}
		}
	],
	"meshes":[
		{
			"name":"1557-worker-and-kolkhoz-woman_(1)",
			"primitives":[
				{
					"attributes":{
						"POSITION":0,
						"NORMAL":1
					},
					"indices":2,
					"material":0
				}
			]
		}
	],
	"accessors":[
		{
			"bufferView":0,
			"componentType":5126,
			"count":755519,
			"max":[
				2.9113924503326416,
				3.1168107986450195,
				-0.0005505084991455078
			],
			"min":[
				-4.27475118637085,
				-3.1658694744110107,
				-9.750551223754883
			],
			"type":"VEC3"
		},
		{
			"bufferView":1,
			"componentType":5126,
			"count":755519,
			"type":"VEC3"
		},
		{
			"bufferView":2,
			"componentType":5125,
			"count":4533144,
			"type":"SCALAR"
		}
	],
	"bufferViews":[
		{
			"buffer":0,
			"byteLength":9066228,
			"byteOffset":0,
			"target":34962
		},
		{
			"buffer":0,
			"byteLength":9066228,
			"byteOffset":9066228,
			"target":34962
		},
		{
			"buffer":0,
			"byteLength":18132576,
			"byteOffset":18132456,
			"target":34963
		}
	],
	"buffers":[
		{
			"byteLength":36265032,
			"uri":"statue.bin"
		}
	]
}
